HIERARCHY
ROOT Hips
{
	OFFSET 0.00000 0.00000 0.00000
	CHANNELS 6 Xposition Yposition Zposition Yrotation Zrotation Xrotation 
	JOINT Lumbar
	{
		OFFSET 0 0 0
		CHANNELS 3 Zrotation Xrotation Yrotation
		JOINT Neck
		{
			OFFSET 0.00 0.2701 0.00
			CHANNELS 3 Zrotation Xrotation Yrotation
			End Site
			{
				OFFSET 0.00 0.1379 0.00
			}
		}
		JOINT RightShoulder
		{
			OFFSET 0.0119 0.2289 0.1181
			CHANNELS 3 Zrotation Xrotation Yrotation
			JOINT RightElbow
			{
				OFFSET 0.00 -0.1475 0.00
				CHANNELS 2 Zrotation Yrotation
				JOINT RightWrist
				{
					OFFSET 0.00 -0.1605 0.00
					CHANNELS 2 Zrotation Xrotation
					End Site
					{
						OFFSET 0.0040 -0.1068 0.0006
					}
				}
			}
		}
		JOINT LeftShoulder
		{
			OFFSET 0.0119 0.2289 -0.1181
			CHANNELS 3 Zrotation Xrotation Yrotation
			JOINT LeftElbow
			{
				OFFSET 0.00 -0.1475 0.00
				CHANNELS 2 Zrotation Yrotation
				JOINT LeftWrist
				{
					OFFSET 0.00 -0.1605 0.00
					CHANNELS 2 Zrotation Xrotation
					End Site
					{
						OFFSET 0.0040 -0.1068 -0.0006
					}
				}
			}
		}
	}
	JOINT RightHip
	{
		OFFSET 0.0316 -0.0424 0.0458
		CHANNELS 3 Zrotation Xrotation Yrotation
		JOINT RightKnee
		{
			OFFSET 0.00 -0.2438 0.00
			CHANNELS 1 Zrotation
			JOINT RightAnkle
			{
				OFFSET 0.00 -0.2449 0.00
				CHANNELS 3 Zrotation Xrotation Yrotation
				End Site
				{
					OFFSET 0.1237 -0.0542 0.0051
				}
			}
		}
	}
	JOINT LeftHip
	{
		OFFSET 0.0316 -0.0424 -0.0458
		CHANNELS 3 Zrotation Xrotation Yrotation
		JOINT LeftKnee
		{
			OFFSET 0.00 -0.2438 0.00
			CHANNELS 1 Zrotation
			JOINT LeftAnkle
			{
				OFFSET 0.00 -0.2449 0.00
				CHANNELS 3 Zrotation Xrotation Yrotation
				End Site
				{
					OFFSET 0.1237 -0.0542 -0.0051
				}
			}
		}
	}
}
MOTION
Frames: 26
Frame Time: 0.02
0 0.57926 0 192.01697 0 -2.49311 7.649 4.20187 -4.34311 -7.30242 -1.71853 -3.23677 15.69974 -10.23723 7.46333 12.96361 83.41389 -3.03313 -5.38692 18.96562 12.09601 0.72964 14.09779 -83.67357 -6.51032 4.29126 -5.50534 7.45443 4.15149 -2.90309 2.4094 -3.00811 -3.78471 -2.64536 2.56431 -13.58052 -6.79301 7.29402 4.35686 6.06296
-2e-05 0.57924 -0.00027 192.06296 0 -2.47602 7.68548 4.17517 -4.21593 -7.35974 -1.67804 -3.16152 15.3048 -10.19999 7.30148 12.82601 83.29158 -2.90905 -5.28118 18.78901 11.95057 0.8854 13.85642 -83.43759 -6.23816 4.17037 -5.48158 7.46632 4.09833 -2.94773 2.44746 -2.96348 -3.7689 -2.63459 2.57196 -13.66549 -6.79478 7.2848 4.38651 6.10121
-4e-05 0.57922 -0.00054 192.10814 0 -2.45909 7.72154 4.14898 -4.08876 -7.41652 -1.63816 -3.08625 14.9072 -10.16222 7.13186 12.68622 83.16898 -2.7852 -5.17422 18.60747 11.80702 1.05031 13.61403 -83.20118 -5.96763 4.04879 -5.45819 7.47828 4.04724 -2.99171 2.48502 -2.9194 -3.75445 -2.62394 2.57968 -13.74938 -6.79668 7.27586 4.41605 6.13924
-6e-05 0.57919 -0.00081 192.14983 0 -2.44261 7.75659 4.1244 -3.9602 -7.47192 -1.60052 -3.00975 14.4992 -10.12211 6.94352 12.53905 83.04518 -2.66103 -5.06345 18.41035 11.66935 1.23709 13.36805 -82.96361 -5.70002 3.92356 -5.43596 7.49036 3.99771 -3.0335 2.52134 -2.87579 -3.73835 -2.61387 2.58774 -13.82913 -6.79898 7.26805 4.44545 6.17674
-7e-05 0.57917 -0.00108 192.20916 0 -2.42371 7.79733 4.0911 -3.83882 -7.5349 -1.55125 -2.93926 14.1512 -10.09462 6.87125 12.43419 82.92915 -2.53853 -4.97543 18.30287 11.50025 1.28821 13.1445 -82.73558 -5.41584 3.81803 -5.40749 7.50147 3.93241 -3.08692 2.56472 -2.82817 -3.72256 -2.60095 2.59398 -13.93004 -6.79901 7.25437 4.4756 6.21703
-0.00011 0.57914 -0.00136 192.2317 0 -2.40995 7.82576 4.07639 -3.70248 -7.58157 -1.52644 -2.85646 13.67331 -10.04031 6.54209 12.23779 82.79582 -2.41263 -4.83764 18.00105 11.39799 1.63967 12.87143 -82.4853 -5.16773 3.67072 -5.39228 7.51485 3.90566 -3.11568 2.59278 -2.79012 -3.71188 -2.59393 2.60409 -13.98664 -6.80392 7.25307 4.50411 6.25135
-0.00022 0.5791 -0.00163 192.14483 0 -2.41074 7.82157 4.11357 -3.5185 -7.58447 -1.57266 -2.73329 12.83779 -9.90863 5.5624 11.79258 82.61702 -2.27356 -4.56803 17.17471 11.48255 2.75281 12.46869 -82.18452 -5.00974 3.40116 -5.4142 7.53323 3.94653 -3.07474 2.58051 -2.76893 -3.66822 -2.60462 2.62523 -13.91344 -6.82237 7.28756 4.52892 6.26972
-0.00036 0.57906 -0.00191 192.02223 0 -2.41667 7.80464 4.16947 -3.32038 -7.57054 -1.64306 -2.59873 11.86984 -9.75023 4.31021 11.25427 82.41994 -2.13182 -4.24685 16.14894 11.63421 4.18586 12.01455 -81.85954 -4.88981 3.09037 -5.44938 7.55419 4.03418 -3.00924 2.55241 -2.75874 -3.63906 -2.62098 2.65025 -13.79683 -6.84576 7.33425 4.55191 6.28196
-0.00049 0.57901 -0.00218 191.92086 0 -2.42001 7.79266 4.21648 -3.13261 -7.56365 -1.70011 -2.47337 10.9609 -9.60612 3.1447 10.75468 82.22968 -1.99327 -3.94525 15.20551 11.75388 5.51429 11.57837 -81.53732 -4.75838 2.80255 -5.47828 7.57477 4.12495 -2.95583 2.53022 -2.75024 -3.63292 -2.63389 2.67331 -13.70477 -6.86685 7.3744 4.57525 6.2967
-0.00063 0.57897 -0.00246 191.79817 0 -2.4244 7.78436 4.26505 -2.92828 -7.55986 -1.76682 -2.33105 10.05769 -9.45329 2.14128 10.26801 82.0464 -1.84544 -3.65992 14.29748 11.88006 6.65824 11.16361 -81.24735 -4.60223 2.49692 -5.50849 7.59184 4.11015 -2.89808 2.51334 -2.71514 -3.49881 -2.65066 2.69717 -13.5922 -6.88814 7.41889 4.60072 6.31273
-0.00075 0.57893 -0.00273 191.71174 0 -2.42783 7.76519 4.31487 -2.75512 -7.54494 -1.81952 -2.22136 9.11026 -9.31186 0.72906 9.73517 81.84338 -1.71748 -3.3285 13.26799 12.00837 8.27783 10.6938 -80.88767 -4.50697 2.21856 -5.53882 7.61705 4.32969 -2.84405 2.48176 -2.736 -3.63848 -2.66053 2.72032 -13.51226 -6.91023 7.45708 4.62119 6.32449
-0.00084 0.57889 -0.00295 191.73138 0 -2.42735 7.7205 4.36311 -2.67104 -7.50904 -1.82445 -2.20435 8.08048 -9.21206 -1.69195 9.07308 81.59842 -1.63501 -2.88225 11.95501 12.12854 11.00124 10.0697 -80.31352 -4.56704 2.02591 -5.56881 7.66234 5.15307 -2.80197 2.41256 -2.92617 -4.49516 -2.65129 2.74034 -13.53136 -6.93322 7.47616 4.62956 6.32712
-0.00091 0.57885 -0.00317 191.78934 0 -2.42575 7.66503 4.41211 -2.61875 -7.46141 -1.81512 -2.22052 7.00989 -9.12401 -4.52577 8.37232 81.33339 -1.57446 -2.39158 10.5266 12.24827 14.21647 9.39499 -79.67519 -4.68756 1.86225 -5.59795 7.71604 6.21432 -2.76525 2.32942 -3.16883 -5.63131 -2.63451 2.75954 -13.58531 -6.95707 7.48826 4.63279 6.32554
-0.00099 0.57882 -0.00339 191.83154 0 -2.42462 7.61362 4.46098 -2.55242 -7.41551 -1.81426 -2.22179 5.95248 -9.02819 -7.2046 7.70535 81.07133 -1.51049 -1.92117 9.14826 12.36636 17.2931 8.75286 -79.08459 -4.7829 1.68485 -5.62583 7.76711 7.19044 -2.72902 2.25304 -3.37624 -6.66548 -2.62049 2.7793 -13.62419 -6.9803 7.50268 4.63746 6.32498
-0.00109 0.57878 -0.00361 191.86528 0 -2.42372 7.5654 4.50936 -2.48454 -7.38441 -1.80543 -2.22231 4.91096 -8.9416 -9.75194 6.96665 80.83173 -1.41894 -1.448 7.77082 12.49378 20.02387 8.06743 -78.415 -4.87057 1.5076 -5.66125 7.81338 8.08062 -2.67981 2.17369 -3.63289 -7.6034 -2.6101 2.79848 -13.65756 -7.00377 7.52101 4.64556 6.32755
-0.00114 0.57875 -0.00384 191.9265 0 -2.42213 7.508 4.55897 -2.42681 -7.31967 -1.81001 -2.23191 3.83107 -8.83902 -12.67179 6.36941 80.54443 -1.38993 -0.97154 6.36947 12.60176 23.5858 7.46216 -77.89474 -4.98722 1.33847 -5.68045 7.87144 9.19386 -2.65895 2.09821 -3.79834 -8.79679 -2.58949 2.81852 -13.7122 -7.02803 7.5295 4.64568 6.3232
-0.00107 0.57877 -0.00411 192.0524 0 -2.41796 7.4289 4.60956 -2.39587 -7.16632 -1.85101 -2.26245 2.6341 -8.68963 -16.48161 6.17256 80.09784 -1.52971 -0.49085 4.90844 12.64923 29.32868 7.07978 -77.80339 -5.17656 1.17542 -5.65544 7.96147 10.96241 -2.71814 2.03002 -3.70878 -10.72038 -2.54829 2.84179 -13.81029 -7.04574 7.51144 4.62194 6.29664
-0.00094 0.57881 -0.00439 192.20555 0 -2.41331 7.34057 4.66171 -2.37257 -6.97885 -1.90684 -2.30006 1.40538 -8.52434 -20.65682 6.11986 79.60899 -1.73163 -0.01036 3.43309 12.67926 35.88194 6.78208 -77.86329 -5.39152 1.02086 -5.61356 8.06281 12.92629 -2.80573 1.96741 -3.52475 -12.87205 -2.49531 2.86563 -13.93086 -7.06671 7.48385 4.59098 6.2643
-0.00083 0.57884 -0.00467 192.34707 0 -2.40946 7.25616 4.71454 -2.342 -6.80679 -1.95822 -2.33215 0.20465 -8.36567 -24.68917 6.00138 79.16227 -1.90384 0.46678 1.97884 12.72004 42.06654 6.45301 -77.85502 -5.58952 0.86948 -5.57962 8.158 14.73964 -2.87775 1.90697 -3.37631 -14.86054 -2.44474 2.88902 -14.0448 -7.09057 7.46124 4.56526 6.23703
-0.00076 0.57886 -0.00494 192.48508 0 -2.40306 7.17348 4.76154 -2.32994 -6.63677 -1.99868 -2.37606 -1.05829 -8.20787 -28.64185 5.88248 78.62258 -2.08206 0.96246 0.45612 12.7442 48.29609 6.09219 -77.84705 -5.81157 0.69192 -5.54628 8.25772 16.83223 -2.95903 1.82676 -3.25666 -17.11793 -2.409 2.91396 -14.14155 -7.09223 7.4356 4.53083 6.19828
-0.00059 0.5789 -0.00523 192.63846 0 -2.40194 7.08393 4.82102 -2.279 -6.45198 -2.06658 -2.39544 -2.1943 -8.04698 -32.83726 5.79939 78.26109 -2.26343 1.41584 -0.92248 12.80476 54.58543 5.8182 -77.86903 -5.98946 0.56731 -5.50549 8.3506 18.37373 -3.03039 1.78851 -3.05898 -18.85598 -2.33633 2.93488 -14.28308 -7.14563 7.41417 4.5132 6.18338
-0.00021 0.57896 -0.00554 192.81065 0 -2.41489 6.98793 4.91457 -2.13327 -6.25686 -2.1988 -2.35518 -3.00703 -7.85972 -37.63609 5.77879 78.45197 -2.42747 1.77806 -1.92548 12.92198 61.11067 5.76444 -77.99113 -6.03288 0.61545 -5.46649 8.42154 18.45714 -3.04524 1.87132 -2.62466 -19.19028 -2.19273 2.95217 -14.50773 -7.30084 7.406 4.54093 6.2249
0.00029 0.57904 -0.00586 193.00102 0 -2.43319 6.88335 5.02048 -1.94523 -6.04413 -2.36011 -2.28811 -3.68295 -7.6745 -42.65017 5.78974 78.81529 -2.59401 2.09266 -2.77612 13.08729 67.61029 5.79536 -78.12906 -6.0315 0.71173 -5.41678 8.48515 17.96 -3.05378 1.99527 -2.12253 -18.97966 -2.00686 2.96364 -14.783 -7.51575 7.40237 4.58614 6.29246
0.00077 0.57912 -0.00619 193.19315 0 -2.44959 6.77618 5.12094 -1.76697 -5.82481 -2.51274 -2.22653 -4.39987 -7.50179 -47.56165 5.78708 79.0659 -2.76694 2.41205 -3.68075 13.25974 73.94908 5.78681 -78.22344 -6.05487 0.76626 -5.36052 8.55239 17.65084 -3.07901 2.09579 -1.68091 -18.95666 -1.8223 2.97324 -15.05792 -7.72943 7.3974 4.62553 6.35555
0.00108 0.57917 -0.00647 193.34119 0 -2.46416 6.69658 5.22135 -1.62908 -5.66525 -2.64487 -2.19298 -5.2123 -7.26936 -52.54784 5.78602 79.45643 -2.91208 2.80273 -4.65608 13.30146 81.06543 5.78466 -78.47348 -6.06202 0.90238 -5.35351 8.61911 17.65743 -3.04459 2.21536 -1.11289 -19.18244 -1.71409 3.00333 -15.23817 -7.83293 7.38983 4.65666 6.38826
0.00178 0.57927 -0.00686 193.58849 0 -2.48329 6.55702 5.32401 -1.39671 -5.3783 -2.82871 -2.09523 -5.78668 -7.16508 -57.37264 5.78766 79.60151 -3.11263 3.03345 -5.44059 13.63677 86.51947 5.78903 -78.40495 -6.09021 0.88319 -5.23953 8.68457 16.88027 -3.1354 2.30633 -0.79048 -18.77365 -1.43548 2.98757 -15.62714 -8.18127 7.38788 4.70801 6.48936
